<svg id="Calque_1" data-name="Calque 1" xmlns="http://www.w3.org/2000/svg" viewBox="0 0 250 100.03"><defs><style>.cls-1{fill:#fff;}.cls-2{isolation:isolate;}</style></defs><title>logo_blanc</title><path class="cls-1" d="M0,100V0H250V100Zm5.24-5.34H244.61V5.23H5.24Z" transform="translate(0 0.02)"/><g class="cls-2"><g class="cls-2"><path class="cls-1" d="M38.77,62.11A8.09,8.09,0,0,1,33,59.74c-2.15-2.14-2.15-4.38-2.15-9.21s0-7.07,2.15-9.22A8.12,8.12,0,0,1,38.77,39c4.1,0,7.13,2.49,7.9,6.78H44.18a5.39,5.39,0,0,0-5.41-4.61,5.53,5.53,0,0,0-3.94,1.6c-1.44,1.47-1.6,3-1.6,7.81s.16,6.33,1.6,7.81a5.53,5.53,0,0,0,3.94,1.6,5.45,5.45,0,0,0,5.47-4.61h2.43A7.68,7.68,0,0,1,38.77,62.11Z" transform="translate(0 0.02)"/></g><g class="cls-2"><path class="cls-1" d="M57.9,52.51v9.41H55.47V52.51L48.69,39.14h2.62l5.38,10.91L62,39.14h2.62Z" transform="translate(0 0.02)"/><path class="cls-1" d="M81.42,61.92V51.52H70.61v10.4H68.17V39.14h2.44v10.2H81.42V39.14h2.43V61.92Z" transform="translate(0 0.02)"/><path class="cls-1" d="M103.72,61.92l-1.82-5.15H92l-1.82,5.15h-2.6l8.39-22.78h2l8.35,22.78ZM92.4,36.67V33.83h2.3v2.84Zm4.57,6-4.28,12h8.51Zm2.21-6V33.83h2.3v2.84Z" transform="translate(0 0.02)"/><path class="cls-1" d="M131.53,59.81a8,8,0,0,1-5.76,2.11H118V39.14h7.8a7.93,7.93,0,0,1,5.76,2.11c2.37,2.37,2.24,5.86,2.24,9S133.9,57.44,131.53,59.81ZM129.84,43a5.93,5.93,0,0,0-4.48-1.67h-5V59.74h5a5.92,5.92,0,0,0,4.48-1.66c1.56-1.63,1.5-5,1.5-7.81S131.4,44.61,129.84,43Z" transform="translate(0 0.02)"/><path class="cls-1" d="M139.5,61.92V39.14h14.14v2.17H141.93v8h10v2.18h-10v8.22h11.71v2.18Z" transform="translate(0 0.02)"/><path class="cls-1" d="M164.56,62.11c-3.43,0-5.67-.86-7.81-3l1.66-1.66a7.83,7.83,0,0,0,6.21,2.5c3.33,0,5.38-1.57,5.38-4.23a3.7,3.7,0,0,0-1.09-2.85c-.74-.64-1.31-.83-3-1.08l-2.65-.42a8.28,8.28,0,0,1-4.2-1.73,5.37,5.37,0,0,1-1.72-4.25c0-3.87,2.78-6.43,7.29-6.43a9.17,9.17,0,0,1,6.79,2.49L169.87,43a7.18,7.18,0,0,0-5.31-1.95c-3,0-4.8,1.69-4.8,4.22a3.32,3.32,0,0,0,1,2.63,6.6,6.6,0,0,0,3.07,1.24l2.5.39a7.29,7.29,0,0,1,4.16,1.6,5.71,5.71,0,0,1,1.92,4.51C172.43,59.65,169.29,62.11,164.56,62.11Z" transform="translate(0 0.02)"/><path class="cls-1" d="M177.52,61.92V39.14H180V61.92Z" transform="translate(0 0.02)"/><path class="cls-1" d="M199.72,59.49a8.35,8.35,0,0,1-11.9.25c-2.14-2.14-2.14-4.38-2.14-9.21s0-7.07,2.14-9.22A8.09,8.09,0,0,1,193.64,39a7.75,7.75,0,0,1,8,6.81h-2.43a5.6,5.6,0,0,0-9.47-3c-1.44,1.48-1.6,3-1.6,7.78s.16,6.33,1.6,7.81A5.69,5.69,0,0,0,198,58a5.94,5.94,0,0,0,1.28-4.12V52.13h-5.6V50h8V53.6C201.67,56.22,201.13,58,199.72,59.49Z" transform="translate(0 0.02)"/><path class="cls-1" d="M221.87,61.92l-12.1-18.27V61.92h-2.43V39.14h2.3l12.1,18.2V39.14h2.43V61.92Z" transform="translate(0 0.02)"/></g></g></svg>